<mxfile host="app.diagrams.net" modified="2023-12-22T22:11:52.383Z" agent="Mozilla/5.0 (Windows NT 10.0; Win64; x64) AppleWebKit/537.36 (KHTML, like Gecko) Chrome/120.0.0.0 Safari/537.36" etag="WstdnSil8g8Zust6kbNh" version="22.1.11" type="github" pages="4">
  <diagram name="Schema Scheletro" id="E_TyFUatoE3oYiJs9Rrp">
    <mxGraphModel dx="1434" dy="784" grid="1" gridSize="30" guides="1" tooltips="1" connect="1" arrows="1" fold="1" page="1" pageScale="1" pageWidth="827" pageHeight="1169" math="0" shadow="0">
      <root>
        <mxCell id="0" />
        <mxCell id="1" parent="0" />
        <mxCell id="EKQPI3h6bdiyiz6MP-BK-24" value="Fornitore" style="rounded=0;whiteSpace=wrap;html=1;" parent="1" vertex="1">
          <mxGeometry x="160" y="280" width="80" height="40" as="geometry" />
        </mxCell>
        <mxCell id="EKQPI3h6bdiyiz6MP-BK-25" value="" style="endArrow=none;html=1;rounded=0;exitX=1;exitY=0.5;exitDx=0;exitDy=0;entryX=0;entryY=0.5;entryDx=0;entryDy=0;" parent="1" source="EKQPI3h6bdiyiz6MP-BK-24" target="4YB2jRzP4f0B-qHmFMyz-1" edge="1">
          <mxGeometry width="50" height="50" relative="1" as="geometry">
            <mxPoint x="300" y="370" as="sourcePoint" />
            <mxPoint x="260" y="300" as="targetPoint" />
          </mxGeometry>
        </mxCell>
        <mxCell id="4YB2jRzP4f0B-qHmFMyz-1" value="Erogazione" style="rhombus;whiteSpace=wrap;html=1;fontSize=9;" parent="1" vertex="1">
          <mxGeometry x="270" y="280" width="60" height="40" as="geometry" />
        </mxCell>
        <mxCell id="4YB2jRzP4f0B-qHmFMyz-2" value="Bolletta" style="rounded=0;whiteSpace=wrap;html=1;" parent="1" vertex="1">
          <mxGeometry x="360" y="280" width="80" height="40" as="geometry" />
        </mxCell>
        <mxCell id="4YB2jRzP4f0B-qHmFMyz-3" value="" style="endArrow=none;html=1;rounded=0;exitX=1;exitY=0.5;exitDx=0;exitDy=0;entryX=0;entryY=0.5;entryDx=0;entryDy=0;" parent="1" source="4YB2jRzP4f0B-qHmFMyz-1" target="4YB2jRzP4f0B-qHmFMyz-2" edge="1">
          <mxGeometry width="50" height="50" relative="1" as="geometry">
            <mxPoint x="300" y="320" as="sourcePoint" />
            <mxPoint x="350" y="270" as="targetPoint" />
          </mxGeometry>
        </mxCell>
      </root>
    </mxGraphModel>
  </diagram>
  <diagram id="EaGpRGTQMnbfBDcKuHUa" name="Prima Rifinitura">
    <mxGraphModel dx="1036" dy="614" grid="1" gridSize="10" guides="1" tooltips="1" connect="1" arrows="1" fold="1" page="1" pageScale="1" pageWidth="827" pageHeight="1169" math="0" shadow="0">
      <root>
        <mxCell id="0" />
        <mxCell id="1" parent="0" />
        <mxCell id="NLEcic0KsFE_uK4bu-8Y-1" value="Fornitore" style="rounded=0;whiteSpace=wrap;html=1;" parent="1" vertex="1">
          <mxGeometry x="160" y="280" width="80" height="40" as="geometry" />
        </mxCell>
        <mxCell id="NLEcic0KsFE_uK4bu-8Y-2" value="" style="endArrow=none;html=1;rounded=0;exitX=1;exitY=0.5;exitDx=0;exitDy=0;entryX=0;entryY=0.5;entryDx=0;entryDy=0;" parent="1" source="NLEcic0KsFE_uK4bu-8Y-1" target="NLEcic0KsFE_uK4bu-8Y-3" edge="1">
          <mxGeometry width="50" height="50" relative="1" as="geometry">
            <mxPoint x="300" y="370" as="sourcePoint" />
            <mxPoint x="260" y="300" as="targetPoint" />
          </mxGeometry>
        </mxCell>
        <mxCell id="NLEcic0KsFE_uK4bu-8Y-3" value="Erogazione" style="rhombus;whiteSpace=wrap;html=1;fontSize=9;" parent="1" vertex="1">
          <mxGeometry x="270" y="280" width="60" height="40" as="geometry" />
        </mxCell>
        <mxCell id="NLEcic0KsFE_uK4bu-8Y-4" value="Persone" style="rounded=0;whiteSpace=wrap;html=1;" parent="1" vertex="1">
          <mxGeometry x="259" y="365" width="80" height="40" as="geometry" />
        </mxCell>
        <mxCell id="NLEcic0KsFE_uK4bu-8Y-10" value="Bolletta" style="rounded=0;whiteSpace=wrap;html=1;" parent="1" vertex="1">
          <mxGeometry x="360" y="280" width="100" height="40" as="geometry" />
        </mxCell>
        <mxCell id="NLEcic0KsFE_uK4bu-8Y-11" value="" style="endArrow=none;html=1;rounded=0;entryX=1;entryY=0.5;entryDx=0;entryDy=0;exitX=0;exitY=0.5;exitDx=0;exitDy=0;" parent="1" source="NLEcic0KsFE_uK4bu-8Y-10" target="NLEcic0KsFE_uK4bu-8Y-3" edge="1">
          <mxGeometry width="50" height="50" relative="1" as="geometry">
            <mxPoint x="290" y="370" as="sourcePoint" />
            <mxPoint x="340" y="320" as="targetPoint" />
          </mxGeometry>
        </mxCell>
        <mxCell id="g04TC7ZU03YRCO3gxd3n-2" value="" style="endArrow=oval;html=1;rounded=0;labelBackgroundColor=default;strokeColor=default;align=center;verticalAlign=middle;fontFamily=Helvetica;fontSize=11;fontColor=default;shape=connector;endFill=1;" parent="1" edge="1">
          <mxGeometry width="50" height="50" relative="1" as="geometry">
            <mxPoint x="170" y="280" as="sourcePoint" />
            <mxPoint x="170" y="260" as="targetPoint" />
            <Array as="points" />
          </mxGeometry>
        </mxCell>
        <mxCell id="g04TC7ZU03YRCO3gxd3n-4" value="p.iva" style="text;html=1;strokeColor=none;fillColor=none;align=center;verticalAlign=middle;whiteSpace=wrap;rounded=0;fontSize=9;fontFamily=Helvetica;fontColor=default;rotation=270;" parent="1" vertex="1">
          <mxGeometry x="160" y="236" width="20" height="10" as="geometry" />
        </mxCell>
        <mxCell id="g04TC7ZU03YRCO3gxd3n-5" value="" style="endArrow=oval;html=1;rounded=0;labelBackgroundColor=default;strokeColor=default;align=center;verticalAlign=middle;fontFamily=Helvetica;fontSize=11;fontColor=default;shape=connector;endFill=0;" parent="1" edge="1">
          <mxGeometry width="50" height="50" relative="1" as="geometry">
            <mxPoint x="180" y="280" as="sourcePoint" />
            <mxPoint x="180" y="260" as="targetPoint" />
            <Array as="points" />
          </mxGeometry>
        </mxCell>
        <mxCell id="g04TC7ZU03YRCO3gxd3n-6" value="Nome" style="text;html=1;strokeColor=none;fillColor=none;align=center;verticalAlign=middle;whiteSpace=wrap;rounded=0;fontSize=9;fontFamily=Helvetica;fontColor=default;rotation=270;" parent="1" vertex="1">
          <mxGeometry x="170" y="236" width="20" height="10" as="geometry" />
        </mxCell>
        <mxCell id="g04TC7ZU03YRCO3gxd3n-8" value="Cod.Bolletta" style="text;html=1;strokeColor=none;fillColor=none;align=center;verticalAlign=middle;whiteSpace=wrap;rounded=0;fontSize=9;fontFamily=Helvetica;fontColor=default;rotation=270;" parent="1" vertex="1">
          <mxGeometry x="360" y="225" width="20" height="10" as="geometry" />
        </mxCell>
        <mxCell id="g04TC7ZU03YRCO3gxd3n-9" value="" style="endArrow=oval;html=1;rounded=0;labelBackgroundColor=default;strokeColor=default;align=center;verticalAlign=middle;fontFamily=Helvetica;fontSize=11;fontColor=default;shape=connector;endFill=1;" parent="1" edge="1">
          <mxGeometry width="50" height="50" relative="1" as="geometry">
            <mxPoint x="369.9" y="280" as="sourcePoint" />
            <mxPoint x="369.9" y="260" as="targetPoint" />
            <Array as="points" />
          </mxGeometry>
        </mxCell>
        <mxCell id="g04TC7ZU03YRCO3gxd3n-10" value="Tipo Fornitura" style="text;html=1;strokeColor=none;fillColor=none;align=center;verticalAlign=middle;whiteSpace=wrap;rounded=0;fontSize=9;fontFamily=Helvetica;fontColor=default;rotation=270;" parent="1" vertex="1">
          <mxGeometry x="290" y="232" width="60" height="10" as="geometry" />
        </mxCell>
        <mxCell id="g04TC7ZU03YRCO3gxd3n-11" value="" style="endArrow=oval;html=1;rounded=0;labelBackgroundColor=default;strokeColor=default;align=center;verticalAlign=middle;fontFamily=Helvetica;fontSize=11;fontColor=default;shape=connector;endFill=0;exitX=0.664;exitY=0.163;exitDx=0;exitDy=0;exitPerimeter=0;" parent="1" source="NLEcic0KsFE_uK4bu-8Y-3" edge="1">
          <mxGeometry width="50" height="50" relative="1" as="geometry">
            <mxPoint x="310" y="290" as="sourcePoint" />
            <mxPoint x="320" y="270" as="targetPoint" />
            <Array as="points" />
          </mxGeometry>
        </mxCell>
        <mxCell id="g04TC7ZU03YRCO3gxd3n-13" value="Prezzo" style="text;html=1;strokeColor=none;fillColor=none;align=center;verticalAlign=middle;whiteSpace=wrap;rounded=0;fontSize=9;fontFamily=Helvetica;fontColor=default;rotation=270;" parent="1" vertex="1">
          <mxGeometry x="370" y="235" width="20" height="10" as="geometry" />
        </mxCell>
        <mxCell id="g04TC7ZU03YRCO3gxd3n-14" value="" style="endArrow=oval;html=1;rounded=0;labelBackgroundColor=default;strokeColor=default;align=center;verticalAlign=middle;fontFamily=Helvetica;fontSize=11;fontColor=default;shape=connector;endFill=0;" parent="1" edge="1">
          <mxGeometry width="50" height="50" relative="1" as="geometry">
            <mxPoint x="379.9" y="280" as="sourcePoint" />
            <mxPoint x="379.9" y="260" as="targetPoint" />
            <Array as="points" />
          </mxGeometry>
        </mxCell>
        <mxCell id="g04TC7ZU03YRCO3gxd3n-15" value="Consumo" style="text;html=1;strokeColor=none;fillColor=none;align=center;verticalAlign=middle;whiteSpace=wrap;rounded=0;fontSize=9;fontFamily=Helvetica;fontColor=default;rotation=270;" parent="1" vertex="1">
          <mxGeometry x="380" y="230" width="20" height="10" as="geometry" />
        </mxCell>
        <mxCell id="g04TC7ZU03YRCO3gxd3n-16" value="" style="endArrow=oval;html=1;rounded=0;labelBackgroundColor=default;strokeColor=default;align=center;verticalAlign=middle;fontFamily=Helvetica;fontSize=11;fontColor=default;shape=connector;endFill=0;" parent="1" edge="1">
          <mxGeometry width="50" height="50" relative="1" as="geometry">
            <mxPoint x="389.9" y="280" as="sourcePoint" />
            <mxPoint x="389.9" y="260" as="targetPoint" />
            <Array as="points" />
          </mxGeometry>
        </mxCell>
        <mxCell id="g04TC7ZU03YRCO3gxd3n-19" value="Posizione" style="ellipse;whiteSpace=wrap;html=1;fontFamily=Helvetica;fontSize=5;fontColor=default;" parent="1" vertex="1">
          <mxGeometry x="400" y="250" width="30" height="12" as="geometry" />
        </mxCell>
        <mxCell id="g04TC7ZU03YRCO3gxd3n-21" value="Regione" style="text;html=1;strokeColor=none;fillColor=none;align=center;verticalAlign=middle;whiteSpace=wrap;rounded=0;fontSize=9;fontFamily=Helvetica;fontColor=default;rotation=270;" parent="1" vertex="1">
          <mxGeometry x="414" y="212" width="20" height="10" as="geometry" />
        </mxCell>
        <mxCell id="g04TC7ZU03YRCO3gxd3n-22" value="" style="endArrow=oval;html=1;rounded=0;labelBackgroundColor=default;strokeColor=default;align=center;verticalAlign=middle;fontFamily=Helvetica;fontSize=11;fontColor=default;shape=connector;endFill=0;exitX=0.795;exitY=0.125;exitDx=0;exitDy=0;exitPerimeter=0;" parent="1" source="g04TC7ZU03YRCO3gxd3n-19" edge="1">
          <mxGeometry width="50" height="50" relative="1" as="geometry">
            <mxPoint x="423.9" y="250" as="sourcePoint" />
            <mxPoint x="424" y="240" as="targetPoint" />
            <Array as="points" />
          </mxGeometry>
        </mxCell>
        <mxCell id="g04TC7ZU03YRCO3gxd3n-23" value="Provincia" style="text;html=1;strokeColor=none;fillColor=none;align=center;verticalAlign=middle;whiteSpace=wrap;rounded=0;fontSize=9;fontFamily=Helvetica;fontColor=default;rotation=270;" parent="1" vertex="1">
          <mxGeometry x="394" y="210" width="20" height="10" as="geometry" />
        </mxCell>
        <mxCell id="g04TC7ZU03YRCO3gxd3n-24" value="" style="endArrow=oval;html=1;rounded=0;labelBackgroundColor=default;strokeColor=default;align=center;verticalAlign=middle;fontFamily=Helvetica;fontSize=11;fontColor=default;shape=connector;endFill=0;exitX=0;exitY=0;exitDx=0;exitDy=0;" parent="1" source="g04TC7ZU03YRCO3gxd3n-19" edge="1">
          <mxGeometry width="50" height="50" relative="1" as="geometry">
            <mxPoint x="403.9" y="250" as="sourcePoint" />
            <mxPoint x="404" y="240" as="targetPoint" />
            <Array as="points" />
          </mxGeometry>
        </mxCell>
        <mxCell id="g04TC7ZU03YRCO3gxd3n-25" value="" style="endArrow=oval;html=1;rounded=0;labelBackgroundColor=default;strokeColor=default;align=center;verticalAlign=middle;fontFamily=Helvetica;fontSize=11;fontColor=default;shape=connector;exitX=1;exitY=0.25;exitDx=0;exitDy=0;endFill=1;" parent="1" source="NLEcic0KsFE_uK4bu-8Y-4" edge="1">
          <mxGeometry width="50" height="50" relative="1" as="geometry">
            <mxPoint x="339" y="395" as="sourcePoint" />
            <mxPoint x="359" y="375" as="targetPoint" />
          </mxGeometry>
        </mxCell>
        <mxCell id="g04TC7ZU03YRCO3gxd3n-26" value="Id Persona" style="text;html=1;strokeColor=none;fillColor=none;align=left;verticalAlign=middle;whiteSpace=wrap;rounded=0;fontSize=11;fontFamily=Helvetica;fontColor=default;" parent="1" vertex="1">
          <mxGeometry x="370" y="370" width="75" height="10" as="geometry" />
        </mxCell>
        <mxCell id="g04TC7ZU03YRCO3gxd3n-27" value="" style="endArrow=oval;html=1;rounded=0;labelBackgroundColor=default;strokeColor=default;align=center;verticalAlign=middle;fontFamily=Helvetica;fontSize=11;fontColor=default;shape=connector;exitX=1;exitY=0.25;exitDx=0;exitDy=0;endFill=0;" parent="1" edge="1">
          <mxGeometry width="50" height="50" relative="1" as="geometry">
            <mxPoint x="339" y="385" as="sourcePoint" />
            <mxPoint x="359" y="385" as="targetPoint" />
          </mxGeometry>
        </mxCell>
        <mxCell id="g04TC7ZU03YRCO3gxd3n-28" value="Nome" style="text;html=1;strokeColor=none;fillColor=none;align=left;verticalAlign=middle;whiteSpace=wrap;rounded=0;fontSize=11;fontFamily=Helvetica;fontColor=default;" parent="1" vertex="1">
          <mxGeometry x="371" y="380" width="36" height="10" as="geometry" />
        </mxCell>
        <mxCell id="g04TC7ZU03YRCO3gxd3n-29" value="" style="endArrow=oval;html=1;rounded=0;labelBackgroundColor=default;strokeColor=default;align=center;verticalAlign=middle;fontFamily=Helvetica;fontSize=11;fontColor=default;shape=connector;exitX=1;exitY=0.25;exitDx=0;exitDy=0;endFill=0;" parent="1" edge="1">
          <mxGeometry width="50" height="50" relative="1" as="geometry">
            <mxPoint x="339" y="395" as="sourcePoint" />
            <mxPoint x="359" y="395" as="targetPoint" />
          </mxGeometry>
        </mxCell>
        <mxCell id="g04TC7ZU03YRCO3gxd3n-30" value="Cognome" style="text;html=1;strokeColor=none;fillColor=none;align=center;verticalAlign=middle;whiteSpace=wrap;rounded=0;fontSize=11;fontFamily=Helvetica;fontColor=default;" parent="1" vertex="1">
          <mxGeometry x="371" y="390" width="50" height="10" as="geometry" />
        </mxCell>
        <mxCell id="g04TC7ZU03YRCO3gxd3n-38" value="" style="shape=flexArrow;endArrow=classic;html=1;rounded=0;labelBackgroundColor=default;strokeColor=default;align=center;verticalAlign=middle;fontFamily=Helvetica;fontSize=11;fontColor=default;entryX=0.5;entryY=1;entryDx=0;entryDy=0;" parent="1" target="NLEcic0KsFE_uK4bu-8Y-4" edge="1">
          <mxGeometry width="50" height="50" relative="1" as="geometry">
            <mxPoint x="299" y="455" as="sourcePoint" />
            <mxPoint x="349" y="395" as="targetPoint" />
          </mxGeometry>
        </mxCell>
        <mxCell id="g04TC7ZU03YRCO3gxd3n-42" style="edgeStyle=orthogonalEdgeStyle;shape=connector;rounded=0;orthogonalLoop=1;jettySize=auto;html=1;labelBackgroundColor=default;strokeColor=default;align=center;verticalAlign=middle;fontFamily=Helvetica;fontSize=11;fontColor=default;endArrow=none;endFill=0;" parent="1" source="g04TC7ZU03YRCO3gxd3n-39" edge="1">
          <mxGeometry relative="1" as="geometry">
            <mxPoint x="299" y="455" as="targetPoint" />
            <Array as="points">
              <mxPoint x="240" y="455" />
            </Array>
          </mxGeometry>
        </mxCell>
        <mxCell id="g04TC7ZU03YRCO3gxd3n-39" value="Admin" style="rounded=0;whiteSpace=wrap;html=1;" parent="1" vertex="1">
          <mxGeometry x="200" y="465" width="80" height="40" as="geometry" />
        </mxCell>
        <mxCell id="g04TC7ZU03YRCO3gxd3n-44" style="edgeStyle=orthogonalEdgeStyle;shape=connector;rounded=0;orthogonalLoop=1;jettySize=auto;html=1;exitX=0.5;exitY=0;exitDx=0;exitDy=0;labelBackgroundColor=default;strokeColor=default;align=center;verticalAlign=middle;fontFamily=Helvetica;fontSize=11;fontColor=default;endArrow=none;endFill=0;" parent="1" source="g04TC7ZU03YRCO3gxd3n-40" edge="1">
          <mxGeometry relative="1" as="geometry">
            <mxPoint x="299" y="455" as="targetPoint" />
            <Array as="points">
              <mxPoint x="360" y="455" />
            </Array>
          </mxGeometry>
        </mxCell>
        <mxCell id="g04TC7ZU03YRCO3gxd3n-40" value="Utente" style="rounded=0;whiteSpace=wrap;html=1;" parent="1" vertex="1">
          <mxGeometry x="320" y="465" width="80" height="40" as="geometry" />
        </mxCell>
        <mxCell id="eDtCk_GJ_s8FMwtHKJ8D-4" style="edgeStyle=orthogonalEdgeStyle;rounded=0;orthogonalLoop=1;jettySize=auto;html=1;exitX=1;exitY=0.5;exitDx=0;exitDy=0;entryX=0.5;entryY=1;entryDx=0;entryDy=0;endArrow=none;endFill=0;" parent="1" source="g04TC7ZU03YRCO3gxd3n-40" target="eDtCk_GJ_s8FMwtHKJ8D-1" edge="1">
          <mxGeometry relative="1" as="geometry">
            <mxPoint x="600" y="539.9047619047619" as="targetPoint" />
            <mxPoint x="429" y="485" as="sourcePoint" />
          </mxGeometry>
        </mxCell>
        <mxCell id="g04TC7ZU03YRCO3gxd3n-48" value="(1,1)" style="text;html=1;strokeColor=none;fillColor=none;align=center;verticalAlign=middle;whiteSpace=wrap;rounded=0;fontSize=4;fontFamily=Helvetica;fontColor=default;" parent="1" vertex="1">
          <mxGeometry x="330" y="290" width="10" height="10" as="geometry" />
        </mxCell>
        <mxCell id="g04TC7ZU03YRCO3gxd3n-49" value="(1,1)" style="text;html=1;strokeColor=none;fillColor=none;align=center;verticalAlign=middle;whiteSpace=wrap;rounded=0;fontSize=4;fontFamily=Helvetica;fontColor=default;" parent="1" vertex="1">
          <mxGeometry x="350" y="290" width="10" height="10" as="geometry" />
        </mxCell>
        <mxCell id="g04TC7ZU03YRCO3gxd3n-50" value="(0,N)" style="text;html=1;strokeColor=none;fillColor=none;align=center;verticalAlign=middle;whiteSpace=wrap;rounded=0;fontSize=4;fontFamily=Helvetica;fontColor=default;" parent="1" vertex="1">
          <mxGeometry x="240" y="290" width="10" height="10" as="geometry" />
        </mxCell>
        <mxCell id="g04TC7ZU03YRCO3gxd3n-51" value="(1,1)" style="text;html=1;strokeColor=none;fillColor=none;align=center;verticalAlign=middle;whiteSpace=wrap;rounded=0;fontSize=4;fontFamily=Helvetica;fontColor=default;" parent="1" vertex="1">
          <mxGeometry x="260" y="290" width="10" height="10" as="geometry" />
        </mxCell>
        <mxCell id="CqSM8E08sE21XfdNnj06-10" style="edgeStyle=orthogonalEdgeStyle;rounded=0;orthogonalLoop=1;jettySize=auto;html=1;exitX=0.5;exitY=1;exitDx=0;exitDy=0;entryX=0.553;entryY=-0.007;entryDx=0;entryDy=0;entryPerimeter=0;endArrow=none;endFill=0;" parent="1" source="g04TC7ZU03YRCO3gxd3n-19" target="NLEcic0KsFE_uK4bu-8Y-10" edge="1">
          <mxGeometry relative="1" as="geometry" />
        </mxCell>
        <mxCell id="CqSM8E08sE21XfdNnj06-11" value="Data" style="ellipse;whiteSpace=wrap;html=1;fontFamily=Helvetica;fontSize=5;fontColor=default;" parent="1" vertex="1">
          <mxGeometry x="436" y="250" width="30" height="12" as="geometry" />
        </mxCell>
        <mxCell id="CqSM8E08sE21XfdNnj06-12" value="Anno" style="text;html=1;strokeColor=none;fillColor=none;align=center;verticalAlign=middle;whiteSpace=wrap;rounded=0;fontSize=9;fontFamily=Helvetica;fontColor=default;rotation=270;" parent="1" vertex="1">
          <mxGeometry x="450" y="215" width="20" height="10" as="geometry" />
        </mxCell>
        <mxCell id="CqSM8E08sE21XfdNnj06-13" value="" style="endArrow=oval;html=1;rounded=0;labelBackgroundColor=default;strokeColor=default;align=center;verticalAlign=middle;fontFamily=Helvetica;fontSize=11;fontColor=default;shape=connector;endFill=0;exitX=0.795;exitY=0.125;exitDx=0;exitDy=0;exitPerimeter=0;" parent="1" source="CqSM8E08sE21XfdNnj06-11" edge="1">
          <mxGeometry width="50" height="50" relative="1" as="geometry">
            <mxPoint x="459.9" y="250" as="sourcePoint" />
            <mxPoint x="460" y="240" as="targetPoint" />
            <Array as="points" />
          </mxGeometry>
        </mxCell>
        <mxCell id="CqSM8E08sE21XfdNnj06-14" value="Mese" style="text;html=1;strokeColor=none;fillColor=none;align=center;verticalAlign=middle;whiteSpace=wrap;rounded=0;fontSize=9;fontFamily=Helvetica;fontColor=default;rotation=270;" parent="1" vertex="1">
          <mxGeometry x="430" y="215" width="20" height="10" as="geometry" />
        </mxCell>
        <mxCell id="CqSM8E08sE21XfdNnj06-15" value="" style="endArrow=oval;html=1;rounded=0;labelBackgroundColor=default;strokeColor=default;align=center;verticalAlign=middle;fontFamily=Helvetica;fontSize=11;fontColor=default;shape=connector;endFill=0;exitX=0;exitY=0;exitDx=0;exitDy=0;" parent="1" source="CqSM8E08sE21XfdNnj06-11" edge="1">
          <mxGeometry width="50" height="50" relative="1" as="geometry">
            <mxPoint x="439.9" y="250" as="sourcePoint" />
            <mxPoint x="440" y="240" as="targetPoint" />
            <Array as="points" />
          </mxGeometry>
        </mxCell>
        <mxCell id="CqSM8E08sE21XfdNnj06-16" style="edgeStyle=orthogonalEdgeStyle;rounded=0;orthogonalLoop=1;jettySize=auto;html=1;exitX=0.5;exitY=1;exitDx=0;exitDy=0;entryX=0.553;entryY=-0.007;entryDx=0;entryDy=0;entryPerimeter=0;endArrow=none;endFill=0;" parent="1" source="CqSM8E08sE21XfdNnj06-11" edge="1">
          <mxGeometry relative="1" as="geometry">
            <mxPoint x="451" y="280" as="targetPoint" />
          </mxGeometry>
        </mxCell>
        <mxCell id="BoGBWcepoviwHmIUTp3r-1" value="Attiva" style="text;html=1;strokeColor=none;fillColor=none;align=center;verticalAlign=middle;whiteSpace=wrap;rounded=0;fontSize=9;fontFamily=Helvetica;fontColor=default;rotation=0;direction=east;flipH=1;flipV=0;" parent="1" vertex="1">
          <mxGeometry x="490" y="285" width="20" height="10" as="geometry" />
        </mxCell>
        <mxCell id="BoGBWcepoviwHmIUTp3r-2" value="" style="endArrow=oval;html=1;rounded=0;labelBackgroundColor=default;strokeColor=default;align=center;verticalAlign=middle;fontFamily=Helvetica;fontSize=11;fontColor=default;shape=connector;endFill=0;exitX=1;exitY=0.25;exitDx=0;exitDy=0;" parent="1" source="NLEcic0KsFE_uK4bu-8Y-10" edge="1">
          <mxGeometry width="50" height="50" relative="1" as="geometry">
            <mxPoint x="491.07647058823534" y="320" as="sourcePoint" />
            <mxPoint x="480" y="290" as="targetPoint" />
            <Array as="points" />
          </mxGeometry>
        </mxCell>
        <mxCell id="eDtCk_GJ_s8FMwtHKJ8D-1" value="Inserimento" style="rhombus;whiteSpace=wrap;html=1;fontSize=9;" parent="1" vertex="1">
          <mxGeometry x="470" y="360" width="60" height="40" as="geometry" />
        </mxCell>
        <mxCell id="eDtCk_GJ_s8FMwtHKJ8D-3" style="edgeStyle=orthogonalEdgeStyle;rounded=0;orthogonalLoop=1;jettySize=auto;html=1;exitX=0.5;exitY=0;exitDx=0;exitDy=0;entryX=0.555;entryY=1.016;entryDx=0;entryDy=0;entryPerimeter=0;endArrow=none;endFill=0;" parent="1" source="eDtCk_GJ_s8FMwtHKJ8D-1" target="NLEcic0KsFE_uK4bu-8Y-10" edge="1">
          <mxGeometry relative="1" as="geometry" />
        </mxCell>
      </root>
    </mxGraphModel>
  </diagram>
  <diagram id="5ssLOUF_plM-beLufLFx" name="Seconda rifinitura">
    <mxGraphModel dx="592" dy="351" grid="1" gridSize="10" guides="1" tooltips="1" connect="1" arrows="1" fold="1" page="1" pageScale="1" pageWidth="827" pageHeight="1169" math="0" shadow="0">
      <root>
        <mxCell id="0" />
        <mxCell id="1" parent="0" />
        <mxCell id="6dh9kBVaKR-0AqySw2vX-104" value="" style="edgeStyle=orthogonalEdgeStyle;rounded=0;orthogonalLoop=1;jettySize=auto;html=1;endArrow=none;endFill=0;" parent="1" source="_TmIcasoetCV57ojTdUK-54" target="6dh9kBVaKR-0AqySw2vX-55" edge="1">
          <mxGeometry relative="1" as="geometry" />
        </mxCell>
        <mxCell id="_TmIcasoetCV57ojTdUK-54" value="&lt;font style=&quot;font-size: 7px;&quot;&gt;Localizzazione&lt;/font&gt;" style="rhombus;whiteSpace=wrap;html=1;fontSize=9;" parent="1" vertex="1">
          <mxGeometry x="500" y="290" width="60" height="40" as="geometry" />
        </mxCell>
        <mxCell id="_TmIcasoetCV57ojTdUK-57" value="" style="edgeStyle=orthogonalEdgeStyle;rounded=0;orthogonalLoop=1;jettySize=auto;html=1;endArrow=none;endFill=0;" parent="1" source="_TmIcasoetCV57ojTdUK-56" target="_TmIcasoetCV57ojTdUK-54" edge="1">
          <mxGeometry relative="1" as="geometry" />
        </mxCell>
        <mxCell id="_TmIcasoetCV57ojTdUK-56" value="Posizione" style="rounded=0;whiteSpace=wrap;html=1;" parent="1" vertex="1">
          <mxGeometry x="590" y="290" width="80" height="40" as="geometry" />
        </mxCell>
        <mxCell id="_TmIcasoetCV57ojTdUK-58" value="Provincia" style="text;html=1;strokeColor=none;fillColor=none;align=center;verticalAlign=middle;whiteSpace=wrap;rounded=0;fontSize=9;fontFamily=Helvetica;fontColor=default;rotation=270;direction=east;flipH=1;flipV=0;" parent="1" vertex="1">
          <mxGeometry x="590" y="240" width="20" height="10" as="geometry" />
        </mxCell>
        <mxCell id="_TmIcasoetCV57ojTdUK-59" value="" style="endArrow=oval;html=1;rounded=0;labelBackgroundColor=default;strokeColor=default;align=center;verticalAlign=middle;fontFamily=Helvetica;fontSize=11;fontColor=default;shape=connector;endFill=1;" parent="1" edge="1">
          <mxGeometry width="50" height="50" relative="1" as="geometry">
            <mxPoint x="600" y="290" as="sourcePoint" />
            <mxPoint x="600" y="270" as="targetPoint" />
            <Array as="points" />
          </mxGeometry>
        </mxCell>
        <mxCell id="_TmIcasoetCV57ojTdUK-60" value="Regione" style="text;html=1;strokeColor=none;fillColor=none;align=center;verticalAlign=middle;whiteSpace=wrap;rounded=0;fontSize=9;fontFamily=Helvetica;fontColor=default;rotation=270;direction=east;flipH=1;flipV=0;" parent="1" vertex="1">
          <mxGeometry x="600" y="240" width="20" height="10" as="geometry" />
        </mxCell>
        <mxCell id="_TmIcasoetCV57ojTdUK-61" value="" style="endArrow=oval;html=1;rounded=0;labelBackgroundColor=default;strokeColor=default;align=center;verticalAlign=middle;fontFamily=Helvetica;fontSize=11;fontColor=default;shape=connector;endFill=0;" parent="1" edge="1">
          <mxGeometry width="50" height="50" relative="1" as="geometry">
            <mxPoint x="610" y="290" as="sourcePoint" />
            <mxPoint x="610" y="270" as="targetPoint" />
            <Array as="points" />
          </mxGeometry>
        </mxCell>
        <mxCell id="6dh9kBVaKR-0AqySw2vX-51" value="Fornitore" style="rounded=0;whiteSpace=wrap;html=1;" parent="1" vertex="1">
          <mxGeometry x="170" y="290" width="80" height="40" as="geometry" />
        </mxCell>
        <mxCell id="6dh9kBVaKR-0AqySw2vX-52" value="" style="endArrow=none;html=1;rounded=0;exitX=1;exitY=0.5;exitDx=0;exitDy=0;entryX=0;entryY=0.5;entryDx=0;entryDy=0;" parent="1" source="6dh9kBVaKR-0AqySw2vX-51" target="6dh9kBVaKR-0AqySw2vX-53" edge="1">
          <mxGeometry width="50" height="50" relative="1" as="geometry">
            <mxPoint x="310" y="380" as="sourcePoint" />
            <mxPoint x="270" y="310" as="targetPoint" />
          </mxGeometry>
        </mxCell>
        <mxCell id="6dh9kBVaKR-0AqySw2vX-53" value="Erogazione" style="rhombus;whiteSpace=wrap;html=1;fontSize=9;" parent="1" vertex="1">
          <mxGeometry x="280" y="290" width="60" height="40" as="geometry" />
        </mxCell>
        <mxCell id="6dh9kBVaKR-0AqySw2vX-112" style="edgeStyle=orthogonalEdgeStyle;rounded=0;orthogonalLoop=1;jettySize=auto;html=1;exitX=0.5;exitY=0;exitDx=0;exitDy=0;entryX=0.5;entryY=1;entryDx=0;entryDy=0;endArrow=none;endFill=0;" parent="1" source="6dh9kBVaKR-0AqySw2vX-54" target="6dh9kBVaKR-0AqySw2vX-99" edge="1">
          <mxGeometry relative="1" as="geometry" />
        </mxCell>
        <mxCell id="6dh9kBVaKR-0AqySw2vX-54" value="Persone" style="rounded=0;whiteSpace=wrap;html=1;" parent="1" vertex="1">
          <mxGeometry x="380" y="410" width="80" height="40" as="geometry" />
        </mxCell>
        <mxCell id="6dh9kBVaKR-0AqySw2vX-55" value="Bolletta" style="rounded=0;whiteSpace=wrap;html=1;" parent="1" vertex="1">
          <mxGeometry x="370" y="290" width="100" height="40" as="geometry" />
        </mxCell>
        <mxCell id="6dh9kBVaKR-0AqySw2vX-56" value="" style="endArrow=none;html=1;rounded=0;entryX=1;entryY=0.5;entryDx=0;entryDy=0;exitX=0;exitY=0.5;exitDx=0;exitDy=0;" parent="1" source="6dh9kBVaKR-0AqySw2vX-55" target="6dh9kBVaKR-0AqySw2vX-53" edge="1">
          <mxGeometry width="50" height="50" relative="1" as="geometry">
            <mxPoint x="300" y="380" as="sourcePoint" />
            <mxPoint x="350" y="330" as="targetPoint" />
          </mxGeometry>
        </mxCell>
        <mxCell id="6dh9kBVaKR-0AqySw2vX-57" value="" style="endArrow=oval;html=1;rounded=0;labelBackgroundColor=default;strokeColor=default;align=center;verticalAlign=middle;fontFamily=Helvetica;fontSize=11;fontColor=default;shape=connector;endFill=1;" parent="1" edge="1">
          <mxGeometry width="50" height="50" relative="1" as="geometry">
            <mxPoint x="180" y="290" as="sourcePoint" />
            <mxPoint x="180" y="270" as="targetPoint" />
            <Array as="points" />
          </mxGeometry>
        </mxCell>
        <mxCell id="6dh9kBVaKR-0AqySw2vX-58" value="p.iva" style="text;html=1;strokeColor=none;fillColor=none;align=center;verticalAlign=middle;whiteSpace=wrap;rounded=0;fontSize=9;fontFamily=Helvetica;fontColor=default;rotation=270;" parent="1" vertex="1">
          <mxGeometry x="170" y="246" width="20" height="10" as="geometry" />
        </mxCell>
        <mxCell id="6dh9kBVaKR-0AqySw2vX-59" value="" style="endArrow=oval;html=1;rounded=0;labelBackgroundColor=default;strokeColor=default;align=center;verticalAlign=middle;fontFamily=Helvetica;fontSize=11;fontColor=default;shape=connector;endFill=0;" parent="1" edge="1">
          <mxGeometry width="50" height="50" relative="1" as="geometry">
            <mxPoint x="190" y="290" as="sourcePoint" />
            <mxPoint x="190" y="270" as="targetPoint" />
            <Array as="points" />
          </mxGeometry>
        </mxCell>
        <mxCell id="6dh9kBVaKR-0AqySw2vX-60" value="Nome" style="text;html=1;strokeColor=none;fillColor=none;align=center;verticalAlign=middle;whiteSpace=wrap;rounded=0;fontSize=9;fontFamily=Helvetica;fontColor=default;rotation=270;" parent="1" vertex="1">
          <mxGeometry x="180" y="246" width="20" height="10" as="geometry" />
        </mxCell>
        <mxCell id="6dh9kBVaKR-0AqySw2vX-61" value="Cod.Contratto" style="text;html=1;strokeColor=none;fillColor=none;align=center;verticalAlign=middle;whiteSpace=wrap;rounded=0;fontSize=9;fontFamily=Helvetica;fontColor=default;rotation=270;" parent="1" vertex="1">
          <mxGeometry x="370" y="235" width="20" height="10" as="geometry" />
        </mxCell>
        <mxCell id="6dh9kBVaKR-0AqySw2vX-62" value="" style="endArrow=oval;html=1;rounded=0;labelBackgroundColor=default;strokeColor=default;align=center;verticalAlign=middle;fontFamily=Helvetica;fontSize=11;fontColor=default;shape=connector;endFill=1;" parent="1" edge="1">
          <mxGeometry width="50" height="50" relative="1" as="geometry">
            <mxPoint x="379.9" y="290" as="sourcePoint" />
            <mxPoint x="379.9" y="270" as="targetPoint" />
            <Array as="points" />
          </mxGeometry>
        </mxCell>
        <mxCell id="6dh9kBVaKR-0AqySw2vX-65" value="Prezzo" style="text;html=1;strokeColor=none;fillColor=none;align=center;verticalAlign=middle;whiteSpace=wrap;rounded=0;fontSize=9;fontFamily=Helvetica;fontColor=default;rotation=270;" parent="1" vertex="1">
          <mxGeometry x="380" y="245" width="20" height="10" as="geometry" />
        </mxCell>
        <mxCell id="6dh9kBVaKR-0AqySw2vX-66" value="" style="endArrow=oval;html=1;rounded=0;labelBackgroundColor=default;strokeColor=default;align=center;verticalAlign=middle;fontFamily=Helvetica;fontSize=11;fontColor=default;shape=connector;endFill=0;" parent="1" edge="1">
          <mxGeometry width="50" height="50" relative="1" as="geometry">
            <mxPoint x="389.9" y="290" as="sourcePoint" />
            <mxPoint x="389.9" y="270" as="targetPoint" />
            <Array as="points" />
          </mxGeometry>
        </mxCell>
        <mxCell id="6dh9kBVaKR-0AqySw2vX-67" value="Consumo" style="text;html=1;strokeColor=none;fillColor=none;align=center;verticalAlign=middle;whiteSpace=wrap;rounded=0;fontSize=9;fontFamily=Helvetica;fontColor=default;rotation=270;" parent="1" vertex="1">
          <mxGeometry x="390" y="240" width="20" height="10" as="geometry" />
        </mxCell>
        <mxCell id="6dh9kBVaKR-0AqySw2vX-68" value="" style="endArrow=oval;html=1;rounded=0;labelBackgroundColor=default;strokeColor=default;align=center;verticalAlign=middle;fontFamily=Helvetica;fontSize=11;fontColor=default;shape=connector;endFill=0;" parent="1" edge="1">
          <mxGeometry width="50" height="50" relative="1" as="geometry">
            <mxPoint x="399.9" y="290" as="sourcePoint" />
            <mxPoint x="399.9" y="270" as="targetPoint" />
            <Array as="points" />
          </mxGeometry>
        </mxCell>
        <mxCell id="6dh9kBVaKR-0AqySw2vX-70" value="Anno" style="text;html=1;strokeColor=none;fillColor=none;align=center;verticalAlign=middle;whiteSpace=wrap;rounded=0;fontSize=9;fontFamily=Helvetica;fontColor=default;rotation=270;" parent="1" vertex="1">
          <mxGeometry x="410" y="246" width="20" height="10" as="geometry" />
        </mxCell>
        <mxCell id="6dh9kBVaKR-0AqySw2vX-72" value="Mese" style="text;html=1;strokeColor=none;fillColor=none;align=center;verticalAlign=middle;whiteSpace=wrap;rounded=0;fontSize=9;fontFamily=Helvetica;fontColor=default;rotation=270;" parent="1" vertex="1">
          <mxGeometry x="400" y="246" width="20" height="10" as="geometry" />
        </mxCell>
        <mxCell id="6dh9kBVaKR-0AqySw2vX-74" value="" style="endArrow=oval;html=1;rounded=0;labelBackgroundColor=default;strokeColor=default;align=center;verticalAlign=middle;fontFamily=Helvetica;fontSize=11;fontColor=default;shape=connector;exitX=1;exitY=0.25;exitDx=0;exitDy=0;endFill=1;" parent="1" edge="1">
          <mxGeometry width="50" height="50" relative="1" as="geometry">
            <mxPoint x="460" y="415" as="sourcePoint" />
            <mxPoint x="480" y="415" as="targetPoint" />
          </mxGeometry>
        </mxCell>
        <mxCell id="6dh9kBVaKR-0AqySw2vX-75" value="Id Persona" style="text;html=1;strokeColor=none;fillColor=none;align=left;verticalAlign=middle;whiteSpace=wrap;rounded=0;fontSize=11;fontFamily=Helvetica;fontColor=default;" parent="1" vertex="1">
          <mxGeometry x="491" y="410" width="75" height="10" as="geometry" />
        </mxCell>
        <mxCell id="6dh9kBVaKR-0AqySw2vX-76" value="" style="endArrow=oval;html=1;rounded=0;labelBackgroundColor=default;strokeColor=default;align=center;verticalAlign=middle;fontFamily=Helvetica;fontSize=11;fontColor=default;shape=connector;exitX=1;exitY=0.25;exitDx=0;exitDy=0;endFill=0;" parent="1" edge="1">
          <mxGeometry width="50" height="50" relative="1" as="geometry">
            <mxPoint x="460" y="425" as="sourcePoint" />
            <mxPoint x="480" y="425" as="targetPoint" />
          </mxGeometry>
        </mxCell>
        <mxCell id="6dh9kBVaKR-0AqySw2vX-77" value="Nome" style="text;html=1;strokeColor=none;fillColor=none;align=left;verticalAlign=middle;whiteSpace=wrap;rounded=0;fontSize=11;fontFamily=Helvetica;fontColor=default;" parent="1" vertex="1">
          <mxGeometry x="492" y="420" width="36" height="10" as="geometry" />
        </mxCell>
        <mxCell id="6dh9kBVaKR-0AqySw2vX-78" value="" style="endArrow=oval;html=1;rounded=0;labelBackgroundColor=default;strokeColor=default;align=center;verticalAlign=middle;fontFamily=Helvetica;fontSize=11;fontColor=default;shape=connector;exitX=1;exitY=0.25;exitDx=0;exitDy=0;endFill=0;" parent="1" edge="1">
          <mxGeometry width="50" height="50" relative="1" as="geometry">
            <mxPoint x="460" y="435" as="sourcePoint" />
            <mxPoint x="480" y="435" as="targetPoint" />
          </mxGeometry>
        </mxCell>
        <mxCell id="6dh9kBVaKR-0AqySw2vX-79" value="Cognome" style="text;html=1;strokeColor=none;fillColor=none;align=center;verticalAlign=middle;whiteSpace=wrap;rounded=0;fontSize=11;fontFamily=Helvetica;fontColor=default;" parent="1" vertex="1">
          <mxGeometry x="492" y="430" width="50" height="10" as="geometry" />
        </mxCell>
        <mxCell id="6dh9kBVaKR-0AqySw2vX-86" value="(1,1)" style="text;html=1;strokeColor=none;fillColor=none;align=center;verticalAlign=middle;whiteSpace=wrap;rounded=0;fontSize=4;fontFamily=Helvetica;fontColor=default;" parent="1" vertex="1">
          <mxGeometry x="340" y="300" width="10" height="10" as="geometry" />
        </mxCell>
        <mxCell id="6dh9kBVaKR-0AqySw2vX-87" value="(1,1)" style="text;html=1;strokeColor=none;fillColor=none;align=center;verticalAlign=middle;whiteSpace=wrap;rounded=0;fontSize=4;fontFamily=Helvetica;fontColor=default;" parent="1" vertex="1">
          <mxGeometry x="360" y="300" width="10" height="10" as="geometry" />
        </mxCell>
        <mxCell id="6dh9kBVaKR-0AqySw2vX-88" value="(0,N)" style="text;html=1;strokeColor=none;fillColor=none;align=center;verticalAlign=middle;whiteSpace=wrap;rounded=0;fontSize=4;fontFamily=Helvetica;fontColor=default;" parent="1" vertex="1">
          <mxGeometry x="250" y="300" width="10" height="10" as="geometry" />
        </mxCell>
        <mxCell id="6dh9kBVaKR-0AqySw2vX-89" value="(1,1)" style="text;html=1;strokeColor=none;fillColor=none;align=center;verticalAlign=middle;whiteSpace=wrap;rounded=0;fontSize=4;fontFamily=Helvetica;fontColor=default;" parent="1" vertex="1">
          <mxGeometry x="270" y="300" width="10" height="10" as="geometry" />
        </mxCell>
        <mxCell id="6dh9kBVaKR-0AqySw2vX-97" value="Attiva" style="text;html=1;strokeColor=none;fillColor=none;align=center;verticalAlign=middle;whiteSpace=wrap;rounded=0;fontSize=9;fontFamily=Helvetica;fontColor=default;rotation=270;direction=east;flipH=1;flipV=0;" parent="1" vertex="1">
          <mxGeometry x="420" y="246" width="20" height="10" as="geometry" />
        </mxCell>
        <mxCell id="6dh9kBVaKR-0AqySw2vX-99" value="Inserimento" style="rhombus;whiteSpace=wrap;html=1;fontSize=9;" parent="1" vertex="1">
          <mxGeometry x="390" y="350" width="60" height="40" as="geometry" />
        </mxCell>
        <mxCell id="6dh9kBVaKR-0AqySw2vX-100" style="edgeStyle=orthogonalEdgeStyle;rounded=0;orthogonalLoop=1;jettySize=auto;html=1;exitX=0.5;exitY=0;exitDx=0;exitDy=0;entryX=0.555;entryY=1.016;entryDx=0;entryDy=0;entryPerimeter=0;endArrow=none;endFill=0;" parent="1" source="6dh9kBVaKR-0AqySw2vX-99" target="6dh9kBVaKR-0AqySw2vX-55" edge="1">
          <mxGeometry relative="1" as="geometry">
            <Array as="points">
              <mxPoint x="420" y="331" />
            </Array>
          </mxGeometry>
        </mxCell>
        <mxCell id="6dh9kBVaKR-0AqySw2vX-101" value="" style="endArrow=oval;html=1;rounded=0;labelBackgroundColor=default;strokeColor=default;align=center;verticalAlign=middle;fontFamily=Helvetica;fontSize=11;fontColor=default;shape=connector;endFill=0;" parent="1" edge="1">
          <mxGeometry width="50" height="50" relative="1" as="geometry">
            <mxPoint x="409.84" y="290" as="sourcePoint" />
            <mxPoint x="409.84" y="270" as="targetPoint" />
            <Array as="points" />
          </mxGeometry>
        </mxCell>
        <mxCell id="6dh9kBVaKR-0AqySw2vX-102" value="" style="endArrow=oval;html=1;rounded=0;labelBackgroundColor=default;strokeColor=default;align=center;verticalAlign=middle;fontFamily=Helvetica;fontSize=11;fontColor=default;shape=connector;endFill=0;" parent="1" edge="1">
          <mxGeometry width="50" height="50" relative="1" as="geometry">
            <mxPoint x="419.84" y="290" as="sourcePoint" />
            <mxPoint x="419.84" y="270" as="targetPoint" />
            <Array as="points" />
          </mxGeometry>
        </mxCell>
        <mxCell id="6dh9kBVaKR-0AqySw2vX-103" value="" style="endArrow=oval;html=1;rounded=0;labelBackgroundColor=default;strokeColor=default;align=center;verticalAlign=middle;fontFamily=Helvetica;fontSize=11;fontColor=default;shape=connector;endFill=0;" parent="1" edge="1">
          <mxGeometry width="50" height="50" relative="1" as="geometry">
            <mxPoint x="429.91999999999996" y="290" as="sourcePoint" />
            <mxPoint x="429.91999999999996" y="270" as="targetPoint" />
            <Array as="points" />
          </mxGeometry>
        </mxCell>
        <mxCell id="6dh9kBVaKR-0AqySw2vX-105" value="(1,1)" style="text;html=1;strokeColor=none;fillColor=none;align=center;verticalAlign=middle;whiteSpace=wrap;rounded=0;fontSize=4;fontFamily=Helvetica;fontColor=default;" parent="1" vertex="1">
          <mxGeometry x="425" y="330" width="10" height="10" as="geometry" />
        </mxCell>
        <mxCell id="6dh9kBVaKR-0AqySw2vX-106" value="(0,N)" style="text;html=1;strokeColor=none;fillColor=none;align=center;verticalAlign=middle;whiteSpace=wrap;rounded=0;fontSize=4;fontFamily=Helvetica;fontColor=default;" parent="1" vertex="1">
          <mxGeometry x="420" y="400" width="10" height="10" as="geometry" />
        </mxCell>
        <mxCell id="6dh9kBVaKR-0AqySw2vX-108" value="" style="endArrow=oval;html=1;rounded=0;labelBackgroundColor=default;strokeColor=default;align=center;verticalAlign=middle;fontFamily=Helvetica;fontSize=11;fontColor=default;shape=connector;exitX=1;exitY=0.25;exitDx=0;exitDy=0;endFill=0;" parent="1" edge="1">
          <mxGeometry width="50" height="50" relative="1" as="geometry">
            <mxPoint x="460" y="445" as="sourcePoint" />
            <mxPoint x="480" y="445" as="targetPoint" />
          </mxGeometry>
        </mxCell>
        <mxCell id="6dh9kBVaKR-0AqySw2vX-109" value="Tipo Utente" style="text;html=1;strokeColor=none;fillColor=none;align=center;verticalAlign=middle;whiteSpace=wrap;rounded=0;fontSize=11;fontFamily=Helvetica;fontColor=default;" parent="1" vertex="1">
          <mxGeometry x="492" y="440" width="59" height="10" as="geometry" />
        </mxCell>
      </root>
    </mxGraphModel>
  </diagram>
  <diagram id="eOSI6jcM45gyWAoEbuhR" name="Schema logico">
    <mxGraphModel dx="1195" dy="653" grid="0" gridSize="10" guides="1" tooltips="1" connect="1" arrows="1" fold="1" page="1" pageScale="1" pageWidth="827" pageHeight="1169" math="0" shadow="0">
      <root>
        <mxCell id="0" />
        <mxCell id="1" parent="0" />
        <mxCell id="OvsSiJeQa_0FQx_QVQP6-13" style="edgeStyle=orthogonalEdgeStyle;rounded=0;orthogonalLoop=1;jettySize=auto;html=1;exitX=1;exitY=0.5;exitDx=0;exitDy=0;entryX=0;entryY=0.5;entryDx=0;entryDy=0;endArrow=ERmany;endFill=0;startArrow=ERmany;startFill=0;" parent="1" source="OvsSiJeQa_0FQx_QVQP6-3" target="OvsSiJeQa_0FQx_QVQP6-11" edge="1">
          <mxGeometry relative="1" as="geometry" />
        </mxCell>
        <mxCell id="OvsSiJeQa_0FQx_QVQP6-3" value="Fornitore" style="swimlane;fontStyle=0;childLayout=stackLayout;horizontal=1;startSize=30;horizontalStack=0;resizeParent=1;resizeParentMax=0;resizeLast=0;collapsible=1;marginBottom=0;whiteSpace=wrap;html=1;" parent="1" vertex="1">
          <mxGeometry x="70" y="360" width="140" height="120" as="geometry" />
        </mxCell>
        <mxCell id="OvsSiJeQa_0FQx_QVQP6-4" value="Id&lt;span style=&quot;white-space: pre;&quot;&gt;&#x9;&lt;/span&gt;pk" style="text;strokeColor=none;fillColor=none;align=left;verticalAlign=middle;spacingLeft=4;spacingRight=4;overflow=hidden;points=[[0,0.5],[1,0.5]];portConstraint=eastwest;rotatable=0;whiteSpace=wrap;html=1;" parent="OvsSiJeQa_0FQx_QVQP6-3" vertex="1">
          <mxGeometry y="30" width="140" height="30" as="geometry" />
        </mxCell>
        <mxCell id="OvsSiJeQa_0FQx_QVQP6-5" value="Nome" style="text;strokeColor=none;fillColor=none;align=left;verticalAlign=middle;spacingLeft=4;spacingRight=4;overflow=hidden;points=[[0,0.5],[1,0.5]];portConstraint=eastwest;rotatable=0;whiteSpace=wrap;html=1;" parent="OvsSiJeQa_0FQx_QVQP6-3" vertex="1">
          <mxGeometry y="60" width="140" height="30" as="geometry" />
        </mxCell>
        <mxCell id="8kh31564bU4_WOdcOjT5-1" value="Num_Bollette" style="text;strokeColor=none;fillColor=none;align=left;verticalAlign=middle;spacingLeft=4;spacingRight=4;overflow=hidden;points=[[0,0.5],[1,0.5]];portConstraint=eastwest;rotatable=0;whiteSpace=wrap;html=1;" parent="OvsSiJeQa_0FQx_QVQP6-3" vertex="1">
          <mxGeometry y="90" width="140" height="30" as="geometry" />
        </mxCell>
        <mxCell id="OvsSiJeQa_0FQx_QVQP6-7" value="Contratto" style="swimlane;fontStyle=0;childLayout=stackLayout;horizontal=1;startSize=30;horizontalStack=0;resizeParent=1;resizeParentMax=0;resizeLast=0;collapsible=1;marginBottom=0;whiteSpace=wrap;html=1;" parent="1" vertex="1">
          <mxGeometry x="314" y="360" width="140" height="150" as="geometry" />
        </mxCell>
        <mxCell id="OvsSiJeQa_0FQx_QVQP6-8" value="Cod.Contratto&amp;nbsp;&amp;nbsp;&lt;span style=&quot;white-space: pre;&quot;&gt;&#x9;&lt;/span&gt;pk" style="text;strokeColor=none;fillColor=none;align=left;verticalAlign=middle;spacingLeft=4;spacingRight=4;overflow=hidden;points=[[0,0.5],[1,0.5]];portConstraint=eastwest;rotatable=0;whiteSpace=wrap;html=1;" parent="OvsSiJeQa_0FQx_QVQP6-7" vertex="1">
          <mxGeometry y="30" width="140" height="30" as="geometry" />
        </mxCell>
        <mxCell id="OvsSiJeQa_0FQx_QVQP6-11" value="Fornitore&lt;span style=&quot;white-space: pre;&quot;&gt;&#x9;&lt;span style=&quot;white-space: pre;&quot;&gt;&#x9;&lt;/span&gt;&lt;span style=&quot;white-space: pre;&quot;&gt;&#x9;&lt;/span&gt;fk&lt;span style=&quot;white-space: pre;&quot;&gt;&lt;span style=&quot;white-space: pre;&quot;&gt;&lt;/span&gt;&lt;/span&gt;&lt;/span&gt;" style="text;strokeColor=none;fillColor=none;align=left;verticalAlign=middle;spacingLeft=4;spacingRight=4;overflow=hidden;points=[[0,0.5],[1,0.5]];portConstraint=eastwest;rotatable=0;whiteSpace=wrap;html=1;" parent="OvsSiJeQa_0FQx_QVQP6-7" vertex="1">
          <mxGeometry y="60" width="140" height="30" as="geometry" />
        </mxCell>
        <mxCell id="OvsSiJeQa_0FQx_QVQP6-12" value="Posizione&lt;span style=&quot;white-space: pre;&quot;&gt;&#x9;&lt;/span&gt;&lt;span style=&quot;white-space: pre;&quot;&gt;&#x9;&lt;/span&gt;fk" style="text;strokeColor=none;fillColor=none;align=left;verticalAlign=middle;spacingLeft=4;spacingRight=4;overflow=hidden;points=[[0,0.5],[1,0.5]];portConstraint=eastwest;rotatable=0;whiteSpace=wrap;html=1;" parent="OvsSiJeQa_0FQx_QVQP6-7" vertex="1">
          <mxGeometry y="90" width="140" height="30" as="geometry" />
        </mxCell>
        <mxCell id="OvsSiJeQa_0FQx_QVQP6-9" value="Persona&lt;span style=&quot;white-space: pre;&quot;&gt;&#x9;&lt;span style=&quot;white-space: pre;&quot;&gt;&#x9;&lt;span style=&quot;white-space: pre;&quot;&gt;&#x9;&lt;/span&gt;f&lt;/span&gt;k&lt;/span&gt;" style="text;strokeColor=none;fillColor=none;align=left;verticalAlign=middle;spacingLeft=4;spacingRight=4;overflow=hidden;points=[[0,0.5],[1,0.5]];portConstraint=eastwest;rotatable=0;whiteSpace=wrap;html=1;" parent="OvsSiJeQa_0FQx_QVQP6-7" vertex="1">
          <mxGeometry y="120" width="140" height="30" as="geometry" />
        </mxCell>
        <mxCell id="OvsSiJeQa_0FQx_QVQP6-15" value="Posizione" style="swimlane;fontStyle=0;childLayout=stackLayout;horizontal=1;startSize=30;horizontalStack=0;resizeParent=1;resizeParentMax=0;resizeLast=0;collapsible=1;marginBottom=0;whiteSpace=wrap;html=1;" parent="1" vertex="1">
          <mxGeometry x="570" y="360" width="140" height="120" as="geometry" />
        </mxCell>
        <mxCell id="OvsSiJeQa_0FQx_QVQP6-16" value="Provincia&lt;span style=&quot;white-space: pre;&quot;&gt;&#x9;&lt;/span&gt;&lt;span style=&quot;white-space: pre;&quot;&gt;&#x9;&lt;/span&gt;&lt;span style=&quot;white-space: pre;&quot;&gt;&#x9;&lt;/span&gt;pk" style="text;strokeColor=none;fillColor=none;align=left;verticalAlign=middle;spacingLeft=4;spacingRight=4;overflow=hidden;points=[[0,0.5],[1,0.5]];portConstraint=eastwest;rotatable=0;whiteSpace=wrap;html=1;" parent="OvsSiJeQa_0FQx_QVQP6-15" vertex="1">
          <mxGeometry y="30" width="140" height="30" as="geometry" />
        </mxCell>
        <mxCell id="OvsSiJeQa_0FQx_QVQP6-17" value="Regione" style="text;strokeColor=none;fillColor=none;align=left;verticalAlign=middle;spacingLeft=4;spacingRight=4;overflow=hidden;points=[[0,0.5],[1,0.5]];portConstraint=eastwest;rotatable=0;whiteSpace=wrap;html=1;" parent="OvsSiJeQa_0FQx_QVQP6-15" vertex="1">
          <mxGeometry y="60" width="140" height="30" as="geometry" />
        </mxCell>
        <mxCell id="8kh31564bU4_WOdcOjT5-2" value="Num_bollette" style="text;strokeColor=none;fillColor=none;align=left;verticalAlign=middle;spacingLeft=4;spacingRight=4;overflow=hidden;points=[[0,0.5],[1,0.5]];portConstraint=eastwest;rotatable=0;whiteSpace=wrap;html=1;" parent="OvsSiJeQa_0FQx_QVQP6-15" vertex="1">
          <mxGeometry y="90" width="140" height="30" as="geometry" />
        </mxCell>
        <mxCell id="OvsSiJeQa_0FQx_QVQP6-18" style="edgeStyle=orthogonalEdgeStyle;rounded=0;orthogonalLoop=1;jettySize=auto;html=1;exitX=0;exitY=0.5;exitDx=0;exitDy=0;endArrow=ERmany;endFill=0;startArrow=ERmany;startFill=0;entryX=1.008;entryY=0.672;entryDx=0;entryDy=0;entryPerimeter=0;" parent="1" source="OvsSiJeQa_0FQx_QVQP6-16" target="OvsSiJeQa_0FQx_QVQP6-12" edge="1">
          <mxGeometry relative="1" as="geometry">
            <mxPoint x="464" y="470" as="targetPoint" />
            <Array as="points">
              <mxPoint x="530" y="405" />
              <mxPoint x="530" y="470" />
            </Array>
          </mxGeometry>
        </mxCell>
        <mxCell id="OvsSiJeQa_0FQx_QVQP6-20" value="Persona" style="swimlane;fontStyle=0;childLayout=stackLayout;horizontal=1;startSize=30;horizontalStack=0;resizeParent=1;resizeParentMax=0;resizeLast=0;collapsible=1;marginBottom=0;whiteSpace=wrap;html=1;" parent="1" vertex="1">
          <mxGeometry x="290" y="550" width="140" height="150" as="geometry" />
        </mxCell>
        <mxCell id="OvsSiJeQa_0FQx_QVQP6-21" value="Id&lt;span style=&quot;white-space: pre;&quot;&gt;&#x9;&lt;/span&gt;pk" style="text;strokeColor=none;fillColor=none;align=left;verticalAlign=middle;spacingLeft=4;spacingRight=4;overflow=hidden;points=[[0,0.5],[1,0.5]];portConstraint=eastwest;rotatable=0;whiteSpace=wrap;html=1;" parent="OvsSiJeQa_0FQx_QVQP6-20" vertex="1">
          <mxGeometry y="30" width="140" height="30" as="geometry" />
        </mxCell>
        <mxCell id="FbodfXz_V4z5RsdTHkVr-1" value="Nome" style="text;strokeColor=none;fillColor=none;align=left;verticalAlign=middle;spacingLeft=4;spacingRight=4;overflow=hidden;points=[[0,0.5],[1,0.5]];portConstraint=eastwest;rotatable=0;whiteSpace=wrap;html=1;" vertex="1" parent="OvsSiJeQa_0FQx_QVQP6-20">
          <mxGeometry y="60" width="140" height="30" as="geometry" />
        </mxCell>
        <mxCell id="FbodfXz_V4z5RsdTHkVr-2" value="Cognome" style="text;strokeColor=none;fillColor=none;align=left;verticalAlign=middle;spacingLeft=4;spacingRight=4;overflow=hidden;points=[[0,0.5],[1,0.5]];portConstraint=eastwest;rotatable=0;whiteSpace=wrap;html=1;" vertex="1" parent="OvsSiJeQa_0FQx_QVQP6-20">
          <mxGeometry y="90" width="140" height="30" as="geometry" />
        </mxCell>
        <mxCell id="OvsSiJeQa_0FQx_QVQP6-22" value="TipologiaUtente" style="text;strokeColor=none;fillColor=none;align=left;verticalAlign=middle;spacingLeft=4;spacingRight=4;overflow=hidden;points=[[0,0.5],[1,0.5]];portConstraint=eastwest;rotatable=0;whiteSpace=wrap;html=1;" parent="OvsSiJeQa_0FQx_QVQP6-20" vertex="1">
          <mxGeometry y="120" width="140" height="30" as="geometry" />
        </mxCell>
        <mxCell id="OvsSiJeQa_0FQx_QVQP6-27" style="edgeStyle=orthogonalEdgeStyle;rounded=0;orthogonalLoop=1;jettySize=auto;html=1;entryX=1;entryY=0.5;entryDx=0;entryDy=0;endArrow=ERmany;endFill=0;startArrow=ERmany;startFill=0;exitX=1.007;exitY=0.344;exitDx=0;exitDy=0;exitPerimeter=0;" parent="1" source="OvsSiJeQa_0FQx_QVQP6-21" target="OvsSiJeQa_0FQx_QVQP6-9" edge="1">
          <mxGeometry relative="1" as="geometry">
            <mxPoint x="504" y="490" as="targetPoint" />
            <Array as="points">
              <mxPoint x="494" y="590" />
              <mxPoint x="494" y="495" />
            </Array>
            <mxPoint x="530" y="630" as="sourcePoint" />
          </mxGeometry>
        </mxCell>
        <mxCell id="OvsSiJeQa_0FQx_QVQP6-34" style="edgeStyle=orthogonalEdgeStyle;rounded=0;orthogonalLoop=1;jettySize=auto;html=1;entryX=1;entryY=0.5;entryDx=0;entryDy=0;endArrow=ERmany;endFill=0;startArrow=ERmany;startFill=0;" parent="1" source="OvsSiJeQa_0FQx_QVQP6-29" target="OvsSiJeQa_0FQx_QVQP6-8" edge="1">
          <mxGeometry relative="1" as="geometry">
            <mxPoint x="500" y="411.27998046875" as="targetPoint" />
            <Array as="points">
              <mxPoint x="490" y="140" />
              <mxPoint x="490" y="405" />
            </Array>
            <mxPoint x="454" y="141" as="sourcePoint" />
          </mxGeometry>
        </mxCell>
        <mxCell id="OvsSiJeQa_0FQx_QVQP6-28" value="Bolletta" style="swimlane;fontStyle=0;childLayout=stackLayout;horizontal=1;startSize=30;horizontalStack=0;resizeParent=1;resizeParentMax=0;resizeLast=0;collapsible=1;marginBottom=0;whiteSpace=wrap;html=1;" parent="1" vertex="1">
          <mxGeometry x="314" y="100" width="140" height="240" as="geometry" />
        </mxCell>
        <mxCell id="OvsSiJeQa_0FQx_QVQP6-29" value="Cod.Contratto&amp;nbsp;&amp;nbsp;&lt;span style=&quot;white-space: pre;&quot;&gt;&#x9;&lt;/span&gt;pk" style="text;strokeColor=none;fillColor=none;align=left;verticalAlign=middle;spacingLeft=4;spacingRight=4;overflow=hidden;points=[[0,0.5],[1,0.5]];portConstraint=eastwest;rotatable=0;whiteSpace=wrap;html=1;" parent="OvsSiJeQa_0FQx_QVQP6-28" vertex="1">
          <mxGeometry y="30" width="140" height="30" as="geometry" />
        </mxCell>
        <mxCell id="OvsSiJeQa_0FQx_QVQP6-30" value="Mese&lt;span style=&quot;white-space: pre;&quot;&gt;&#x9;&lt;/span&gt;&lt;span style=&quot;white-space: pre;&quot;&gt;&#x9;&lt;/span&gt;&lt;span style=&quot;white-space: pre;&quot;&gt;&#x9;&lt;/span&gt;pk" style="text;strokeColor=none;fillColor=none;align=left;verticalAlign=middle;spacingLeft=4;spacingRight=4;overflow=hidden;points=[[0,0.5],[1,0.5]];portConstraint=eastwest;rotatable=0;whiteSpace=wrap;html=1;" parent="OvsSiJeQa_0FQx_QVQP6-28" vertex="1">
          <mxGeometry y="60" width="140" height="30" as="geometry" />
        </mxCell>
        <mxCell id="OvsSiJeQa_0FQx_QVQP6-31" value="Anno&lt;span style=&quot;white-space: pre;&quot;&gt;&#x9;&lt;/span&gt;&lt;span style=&quot;white-space: pre;&quot;&gt;&#x9;&lt;/span&gt;&lt;span style=&quot;white-space: pre;&quot;&gt;&#x9;&lt;/span&gt;pk" style="text;strokeColor=none;fillColor=none;align=left;verticalAlign=middle;spacingLeft=4;spacingRight=4;overflow=hidden;points=[[0,0.5],[1,0.5]];portConstraint=eastwest;rotatable=0;whiteSpace=wrap;html=1;" parent="OvsSiJeQa_0FQx_QVQP6-28" vertex="1">
          <mxGeometry y="90" width="140" height="30" as="geometry" />
        </mxCell>
        <mxCell id="OvsSiJeQa_0FQx_QVQP6-32" value="Prezzo" style="text;strokeColor=none;fillColor=none;align=left;verticalAlign=middle;spacingLeft=4;spacingRight=4;overflow=hidden;points=[[0,0.5],[1,0.5]];portConstraint=eastwest;rotatable=0;whiteSpace=wrap;html=1;" parent="OvsSiJeQa_0FQx_QVQP6-28" vertex="1">
          <mxGeometry y="120" width="140" height="30" as="geometry" />
        </mxCell>
        <mxCell id="OvsSiJeQa_0FQx_QVQP6-33" value="Consumo" style="text;strokeColor=none;fillColor=none;align=left;verticalAlign=middle;spacingLeft=4;spacingRight=4;overflow=hidden;points=[[0,0.5],[1,0.5]];portConstraint=eastwest;rotatable=0;whiteSpace=wrap;html=1;" parent="OvsSiJeQa_0FQx_QVQP6-28" vertex="1">
          <mxGeometry y="150" width="140" height="30" as="geometry" />
        </mxCell>
        <mxCell id="6QJggjPrUhTn8TyeiIVU-1" value="Attiva" style="text;strokeColor=none;fillColor=none;align=left;verticalAlign=middle;spacingLeft=4;spacingRight=4;overflow=hidden;points=[[0,0.5],[1,0.5]];portConstraint=eastwest;rotatable=0;whiteSpace=wrap;html=1;" parent="OvsSiJeQa_0FQx_QVQP6-28" vertex="1">
          <mxGeometry y="180" width="140" height="30" as="geometry" />
        </mxCell>
        <mxCell id="Fqy5RHwhrxZDQQBGJqEk-1" value="URL" style="text;strokeColor=none;fillColor=none;align=left;verticalAlign=middle;spacingLeft=4;spacingRight=4;overflow=hidden;points=[[0,0.5],[1,0.5]];portConstraint=eastwest;rotatable=0;whiteSpace=wrap;html=1;" parent="OvsSiJeQa_0FQx_QVQP6-28" vertex="1">
          <mxGeometry y="210" width="140" height="30" as="geometry" />
        </mxCell>
        <mxCell id="OvsSiJeQa_0FQx_QVQP6-36" value="&lt;h1&gt;Accorgimenti&lt;/h1&gt;&lt;p&gt;Nello schema attuale abbiamo introdotto un ulteriore tabella &quot;Contratto&quot;, che ci permette di evitare dei problemi di ridondanza e aggiornamento correlari alla bolletta.&lt;/p&gt;&lt;p&gt;Ci siamo accorti di tale problema nella fase di progettazione logica e quindi abbiamo oprato per tale opzione.&lt;/p&gt;&lt;p&gt;Essa è stata decisa per evitare i problemi precedentemente citati, dovuti a una disnormalizzazione della tabella &quot;Bolletta&quot; presente in maniera centrale nel nostro progetto&lt;/p&gt;" style="text;html=1;strokeColor=none;fillColor=none;spacing=5;spacingTop=-20;whiteSpace=wrap;overflow=hidden;rounded=0;" parent="1" vertex="1">
          <mxGeometry x="1000" y="95" width="250" height="250" as="geometry" />
        </mxCell>
        <mxCell id="OvsSiJeQa_0FQx_QVQP6-37" style="edgeStyle=orthogonalEdgeStyle;rounded=0;orthogonalLoop=1;jettySize=auto;html=1;exitX=0.5;exitY=1;exitDx=0;exitDy=0;" parent="1" source="OvsSiJeQa_0FQx_QVQP6-36" target="OvsSiJeQa_0FQx_QVQP6-36" edge="1">
          <mxGeometry relative="1" as="geometry" />
        </mxCell>
      </root>
    </mxGraphModel>
  </diagram>
</mxfile>
